<svg width="1536" height="720" viewBox="0 0 1536 720" fill="none" xmlns="http://www.w3.org/2000/svg">
<path fill-rule="evenodd" clip-rule="evenodd" d="M1648 50.5C1648 95.6946 1639.49 138.903 1624 178.611C1610.69 176.238 1596.99 175 1583 175C1457.67 175 1355.55 274.378 1351.15 398.632C1333.02 401.507 1314.44 403 1295.5 403C1100.82 403 943 245.18 943 50.5C943 -144.18 1100.82 -302 1295.5 -302C1490.18 -302 1648 -144.18 1648 50.5ZM1351.15 398.632C1351.05 401.409 1351 404.199 1351 407C1351 535.13 1454.87 639 1583 639C1711.13 639 1815 535.13 1815 407C1815 292.859 1732.57 197.971 1624 178.611C1579.23 293.313 1476.12 378.813 1351.15 398.632ZM236 798C318.843 798 386 730.843 386 648C386 566.785 321.456 500.645 240.864 498.077C247.469 474.347 251 449.336 251 423.5C251 270.241 126.759 146 -26.5 146C-179.759 146 -304 270.241 -304 423.5C-304 576.759 -179.759 701 -26.5 701C14.5683 701 53.553 692.079 88.6217 676.068C101.764 745.496 162.75 798 236 798ZM88.6217 676.068C162.361 642.403 218.787 577.395 240.864 498.077C239.249 498.026 237.628 498 236 498C153.157 498 86 565.157 86 648C86 657.593 86.9005 666.976 88.6217 676.068Z" fill="#1ED760"/>
</svg>
